<svg viewBox="0 0 2197 444" id="logo_heroshygiene_color_svg_1724823692" xmlns="http://www.w3.org/2000/svg" width="2197" height="444" fill="none"><path fill="#DE005E" d="M184.246 311.769H129l21.928-113.992c3.417-18.524.854-25.648-7.689-25.648-18.795 0-49.265 48.446-56.954 89.199l-9.397 50.441h-55.53L64.641 84.925v-.855c-8.543-1.425-20.503-2.85-31.04-3.705l6.55-36.193c27.053-2.85 57.239-4.56 87.994-3.42l-13.669 72.386c-3.417 17.668-9.682 37.047-19.649 61.556h.854c16.517-28.499 39.868-51.582 72.617-51.582 36.735 0 46.987 25.933 40.437 60.416zM287.902 240.809c-.284 2.85-.284 7.124-.284 9.689 0 15.959 6.265 21.374 29.616 21.374 17.371 0 36.735-3.99 54.391-11.115v43.032c-21.928 7.695-47.272 12.255-72.332 12.255-49.835 0-67.49-23.939-67.49-64.121 0-80.65 51.543-128.241 105.934-128.241 50.404 0 63.219 24.793 63.219 47.021 0 47.022-45.278 68.111-113.338 70.106zm43.855-75.805c-20.219 0-33.033 19.664-38.444 39.327 33.603-.855 53.822-8.264 53.822-26.218 0-8.264-5.696-13.109-15.093-13.109zM555.87 178.968c-28.762-10.829-57.239 29.353-69.484 94.044l-7.404 39.042h-55.53l27.053-140.496v-.855c-8.259-1.424-20.219-2.849-31.04-3.704l7.119-36.193c26.768-2.85 56.954-4.56 84.292-3.42-2.563 13.394-6.265 27.928-13.669 47.877h.854c18.795-35.622 38.444-57.566 70.054-50.726l-11.961 54.431zM634.752 316.044c-54.676 0-74.895-25.079-74.895-66.686 0-79.225 55.246-125.676 113.624-125.676 54.675 0 74.325 28.498 74.325 67.825 0 75.52-54.107 124.537-113.339 124.537zm29.901-143.916c-30.471 0-46.702 38.473-46.702 68.681 0 15.674 5.98 26.218 23.635 26.218 30.471 0 47.842-35.623 47.842-68.68 0-17.099-6.55-26.219-24.775-26.219M879.084 168.424c-7.404-2.279-15.093-3.419-22.497-3.419-15.947 0-23.066 5.984-23.066 15.104 0 18.238 42.716 31.063 42.716 70.675 0 31.063-27.054 64.69-87.425 64.69-12.245 0-23.92-1.139-33.318-2.849l9.398-46.737c7.404 2.565 19.933 5.129 29.331 5.129 14.808 0 23.351-5.699 23.351-15.104 0-21.373-41.576-27.358-41.576-70.39 0-35.337 27.053-62.126 82.868-62.126 11.106 0 21.357.855 30.755 2.28l-10.252 42.747z"/><path fill="#0B4A8E" d="M1066.46 311.769h-38.44l22.21-116.557c4.84-26.219.29-37.333-13.95-37.333-29.62 0-65.5 65.831-74.043 110.288l-8.259 43.602h-39.013l45.563-238.53V72.1c-7.689-1.425-20.219-2.85-30.755-3.705l4.556-24.508c20.788-2.28 47.842-3.705 71.191-2.565l-15.661 82.645c-2.847 15.103-8.258 33.342-20.218 69.25h.854c17.086-35.908 44.425-69.535 81.445-69.535 34.74 0 45.85 24.793 39.01 62.125l-23.92 125.962zM1159.3 371.615c-23.07 22.513-46.42 33.628-68.92 33.628-9.11 0-19.36-1.14-26.76-2.85l6.55-34.768c7.11 2.565 14.8 3.705 22.49 3.705 12.53 0 26.77-6.555 38.16-18.524 13.1-13.394 18.8-28.783 18.8-53.576 0-50.442-11.11-111.143-27.34-171.274h43.28c11.39 44.457 19.94 99.744 19.94 138.786 0 5.7-1.14 13.109-2.28 19.379h.28c27.06-48.447 50.69-99.174 77.75-165.574l37.3 10.259c-50.69 118.267-94.83 196.067-139.82 240.809zM1436.95 326.303c-8.83 47.021-38.45 79.224-109.64 79.224-20.79 0-37.3-2.849-51.54-7.409l9.11-37.333c14.52 7.125 33.03 10.83 49.55 10.83 36.74 0 58.09-13.964 65.5-51.867 4.84-25.078 9.39-39.327 20.79-74.095h-.86c-13.38 26.218-39.87 70.39-81.44 70.39-27.06 0-41.86-17.668-41.86-56.996 0-68.68 36.16-134.226 116.75-134.226 21.36 0 42.15 1.995 60.94 5.7l-37.87 196.067zm-29.9-170.704c-49.27 0-70.06 53.577-70.06 96.324 0 21.088 6.27 29.923 16.52 29.923 31.04 0 66.35-67.826 74.32-109.718l2.57-13.394c-6.55-1.995-14.53-3.42-23.64-3.42zM1542.6 311.769h-39.02l29.34-152.75v-.855c-7.69-1.425-19.94-2.849-30.76-3.704l4.56-24.509c20.78-2.28 47.84-3.705 71.19-2.565l-35.03 184.098zm23.92-211.456c-13.96 0-23.35-11.114-23.35-22.513 0-15.96 12.53-27.073 26.77-27.073 14.23 0 23.63 10.829 23.63 22.228 0 16.244-13.1 27.358-27.05 27.358M1638.85 233.399c-.85 4.845-1.42 13.11-1.42 18.524 0 25.078 9.39 31.918 37.02 31.918 17.37 0 36.16-3.99 52.68-10.829v31.063c-18.8 7.124-41.58 11.399-65.5 11.399-44.42 0-63.79-19.664-63.79-60.986 0-73.81 43-130.521 102.24-130.521 42.14 0 56.67 21.373 56.67 43.317 0 41.607-41.87 63.266-117.61 65.83zm56.67-79.794c-26.77 0-44.42 23.938-51.83 52.151 50.41-1.995 74.04-12.254 74.04-33.342 0-12.255-8.54-18.809-22.21-18.809M1933.59 311.769h-38.45l22.22-116.557c4.84-26.219.28-37.333-13.67-37.333-29.9 0-65.79 65.831-74.33 110.288l-8.26 43.602h-39.01l29.33-152.75v-.855c-7.69-1.425-19.93-2.85-30.75-3.705l4.55-24.508c20.79-2.28 48.13-3.705 70.06-2.565-2.28 11.399-7.12 31.063-18.51 65.546h.85c17.09-35.908 44.42-69.536 81.44-69.536 34.75 0 45.85 24.794 39.02 62.126l-23.92 125.962zM2029.27 233.399c-.86 4.845-1.43 13.11-1.43 18.524 0 25.078 9.4 31.918 37.02 31.918 17.38 0 36.17-3.99 52.69-10.829v31.063c-18.8 7.124-41.58 11.399-65.5 11.399-44.42 0-63.79-19.664-63.79-60.986 0-73.81 43-130.521 102.23-130.521 42.15 0 56.67 21.373 56.67 43.317 0 41.607-41.86 63.266-117.61 65.83zm56.67-79.794c-26.77 0-44.43 23.938-51.83 52.151 50.4-1.995 74.04-12.254 74.04-33.342 0-12.255-8.54-18.809-22.21-18.809"/></svg>