<svg width="1361" height="581" viewBox="0 0 1361 581" fill="none" xmlns="http://www.w3.org/2000/svg">
<path d="M1360.69 151.25H1049.51V248.39H1192.61L1050.56 473.84L1048.98 476.35H1357.32V378.67H1217.63L1360.69 151.25Z" fill="#F5FBF6"/>
<path d="M243.07 336.17C232.01 355.59 210.58 382.05 172.78 382.05C132.57 382.05 104.46 351.57 104.46 310.72C104.46 269.87 132.57 240.43 172.78 240.43C203.22 240.43 228.68 257.84 240.74 287.28L322.09 229.37C296.64 182.16 242.75 143.32 172.78 143.32C73.34 143.32 0 214.98 0 310.72C0 406.46 69.97 478.12 169.41 478.12C238.05 478.12 289.28 447.32 322.77 394.44L243.07 336.18V336.17Z" fill="#F5FBF6"/>
<path d="M324.56 0V471.43H430V0H324.56Z" fill="#F5FBF6"/>
<path d="M592.36 145.56C655.36 145.56 720.051 177.041 743.711 244.281L743.72 244.291C749.72 261.41 753.091 280.8 753.091 302.59C753.091 314.3 752.08 327.041 750.07 340.111H745.676C743.907 331.743 742.99 323.22 742.99 314.56C742.99 316.247 742.933 317.922 742.857 319.609C742.591 326.515 741.746 333.381 740.308 340.111H533.091C537.471 374.93 570.92 391.34 604.06 391.34C632.88 391.34 658.66 373.251 676.07 351.491L724.79 394.35C702.18 437.57 661.11 469.631 612.07 480.111C608.99 480.291 605.9 480.361 602.74 480.361C504.05 480.361 434.76 415.31 430.24 322.69C430.06 319.46 429.99 316.23 429.99 312.96C429.99 309.471 430.06 305.99 430.24 302.581C434.73 210.321 499.06 145.56 592.36 145.56ZM617.18 206.161C577.84 196.581 538.18 220.72 528.61 260.06C527.09 266.3 526.43 272.54 526.53 278.67C531.93 281.57 537.77 283.851 544.02 285.371C583.36 294.941 623.021 270.8 632.591 231.46V231.47C634.111 225.23 634.771 218.99 634.671 212.86C629.271 209.96 623.43 207.681 617.18 206.161Z" fill="#F5FBF6"/>
<path d="M692.95 463.68C722.43 438.5 740.79 403.03 740.79 363.74C740.79 403.66 759.74 439.63 790.05 464.88" fill="#F5FBF6"/>
<path d="M740.65 580.23C778.261 580.23 808.75 549.741 808.75 512.13C808.75 474.519 778.261 444.03 740.65 444.03C703.039 444.03 672.55 474.519 672.55 512.13C672.55 549.741 703.039 580.23 740.65 580.23Z" fill="#F5FBF6"/>
<path d="M936.66 142.56C1001.21 142.56 1042.21 178.21 1049.03 239.42C1049.39 242.36 1049.64 245.38 1049.78 248.43L1049.77 248.44C1049.95 251.67 1050.06 254.97 1050.06 258.31V476.4H941.86V287.96C941.86 254.82 927.28 239.71 898.82 239.71C870.36 239.71 851.15 258.881 851.15 285.661V470.97C795.566 450.08 754.102 400.364 744.956 340.06H744.99V338.56L742.99 316.56V151.28H834.78C845.05 162.56 851.62 177.24 852.59 193.43V195.51C852.62 195.47 852.63 195.43 852.66 195.4C852.69 195.37 852.73 195.3 852.73 195.26C871.9 165.11 893.11 142.56 936.66 142.56Z" fill="#F5FBF6"/>
</svg>
