<svg width="56" height="87" viewBox="0 0 56 87" fill="none" xmlns="http://www.w3.org/2000/svg">
<path d="M27.6966 0.257202C27.6747 0.310668 27.6526 0.364581 27.6304 0.418936C26.9249 3.04201 35.9744 19.6155 40.6966 27.7572C42.5299 30.7572 48.2236 37.2274 51.6966 46.2572C56.6966 59.2572 55.1966 65.2572 50.6966 72.7572C46.1966 80.2572 36.6966 84.4239 31.1966 85.7572C25.1966 86.4239 11.4966 84.9572 4.69657 73.7572C-2.10343 62.5572 0.863239 51.4239 3.19657 47.2572C6.02991 42.5905 12.3966 32.1572 15.1966 27.7572C17.9762 23.3893 24.5991 7.81983 27.6304 0.418936C27.647 0.3572 27.669 0.303191 27.6966 0.257202Z" fill="#1E1E1E"/>
<path d="M27.6966 0.257202C24.6966 7.59054 17.9966 23.3572 15.1966 27.7572C12.3966 32.1572 6.02991 42.5905 3.19657 47.2572C0.863239 51.4239 -2.10343 62.5572 4.69657 73.7572C11.4966 84.9572 25.1966 86.4239 31.1966 85.7572C36.6966 84.4239 46.1966 80.2572 50.6966 72.7572C55.1966 65.2572 56.6966 59.2572 51.6966 46.2572C48.2236 37.2274 42.5299 30.7572 40.6966 27.7572C35.8632 19.4239 26.4966 2.2572 27.6966 0.257202Z" stroke="white"/>
</svg>
